<?xml version="1.0" encoding="iso-8859-1"?>
<!-- Uploaded to: SVG Repo, www.svgrepo.com, Generator: SVG Repo Mixer Tools -->
<svg version="1.1" id="Layer_1" xmlns="http://www.w3.org/2000/svg" xmlns:xlink="http://www.w3.org/1999/xlink" 
	 viewBox="0 0 512 512" xml:space="preserve">
<g>
	<path style="fill:#FF675C;" d="M387.445,215.718h-63.602v-97.524h27.561c5.851,0,10.6-4.749,10.6-10.6V90.634
		c0-5.851-4.749-10.6-10.6-10.6h-40.282H200.878h-40.282c-5.851,0-10.6,4.749-10.6,10.6v16.961c0,5.851,4.749,10.6,10.6,10.6h27.561
		v97.524h-63.602c-23.416,0-42.402,18.985-42.402,42.402v245.93h347.694V258.12C429.847,234.704,410.861,215.718,387.445,215.718z"
		/>
	<path style="fill:#FF675C;" d="M188.157,215.718v-97.524h135.685v97.524h63.602c23.416,0,42.402,18.985,42.402,42.402v245.93
		H82.153V258.12c0-23.416,18.985-42.402,42.402-42.402H188.157z"/>
</g>
<g>
	<path style="fill:#DB3D5A;" d="M158.476,215.718h-33.921c-23.416,0-42.402,18.985-42.402,42.402v245.93h33.921V258.12
		C116.075,234.704,135.06,215.718,158.476,215.718z"/>
	<rect x="188.157" y="118.195" style="fill:#DB3D5A;" width="33.921" height="97.524"/>
</g>
<path style="fill:#FF675C;" d="M362.004,90.634v16.961c0,5.851-4.749,10.6-10.6,10.6H160.596c-5.851,0-10.6-4.749-10.6-10.6V90.634
	c0-5.851,4.749-10.6,10.6-10.6h190.807C357.255,80.033,362.004,84.782,362.004,90.634z"/>
<rect x="234.799" y="80.033" style="fill:#FFC2BE;" width="47.702" height="38.161"/>
<g>
	<path style="fill:#FFFFFF;" d="M289.921,356.174c-13.736,0-24.911,11.175-24.911,24.911s11.175,24.911,24.911,24.911
		s24.911-11.175,24.911-24.911S303.657,356.174,289.921,356.174z M289.921,390.095c-4.968,0-9.01-4.042-9.01-9.01
		c0-4.968,4.042-9.01,9.01-9.01c4.968,0,9.01,4.042,9.01,9.01C298.932,386.053,294.89,390.095,289.921,390.095z"/>
	<path style="fill:#FFFFFF;" d="M222.079,356.174c-13.736,0-24.911,11.175-24.911,24.911s11.175,24.911,24.911,24.911
		s24.911-11.175,24.911-24.911S235.815,356.174,222.079,356.174z M222.079,390.095c-4.968,0-9.01-4.042-9.01-9.01
		c0-4.968,4.042-9.01,9.01-9.01c4.968,0,9.01,4.042,9.01,9.01C231.089,386.053,227.047,390.095,222.079,390.095z"/>
	<path style="fill:#FFFFFF;" d="M383.205,432.497h-13.667l-32.216-32.217c7.397-13.461,11.431-28.753,11.431-44.636
		c0-16.161-4.159-31.368-11.456-44.613l32.24-32.24h13.667c4.392,0,7.95-3.559,7.95-7.95s-3.559-7.95-7.95-7.95h-9.01v-9.01
		c0-4.392-3.559-7.95-7.95-7.95s-7.95,3.559-7.95,7.95V266.6c0,0.302,0.02,0.599,0.053,0.893l-30.08,30.08
		C311.253,276.44,285.181,262.89,256,262.89s-55.253,13.549-72.268,34.682l-30.08-30.08c0.033-0.294,0.053-0.59,0.053-0.893v-12.72
		c0-4.392-3.559-7.95-7.95-7.95c-4.392,0-7.95,3.559-7.95,7.95v9.01h-9.01c-4.392,0-7.95,3.559-7.95,7.95s3.559,7.95,7.95,7.95
		h13.667l32.24,32.24c-7.296,13.245-11.455,28.452-11.455,44.613c0,15.884,4.035,31.175,11.431,44.636l-32.216,32.217h-13.667
		c-4.392,0-7.95,3.559-7.95,7.95s3.559,7.95,7.95,7.95h9.01v9.01c0,4.392,3.559,7.95,7.95,7.95c4.392,0,7.95-3.559,7.95-7.95v-12.72
		c0-0.302-0.02-0.599-0.053-0.893l30.047-30.047c5.075,6.303,11.009,11.985,17.709,16.865v35.275c0,4.392,3.559,7.95,7.95,7.95
		h93.284c4.392,0,7.95-3.559,7.95-7.95v-35.275c6.699-4.88,12.634-10.562,17.709-16.865l30.047,30.047
		c-0.033,0.294-0.053,0.59-0.053,0.893v12.72c0,4.392,3.559,7.95,7.95,7.95c4.392,0,7.95-3.559,7.95-7.95v-9.01h9.01
		c4.392,0,7.95-3.559,7.95-7.95S387.597,432.497,383.205,432.497z M298.262,419.819c-2.229,1.472-3.57,3.965-3.57,6.636v31.483h-5.3
		v-17.491c0-4.392-3.559-7.95-7.95-7.95s-7.95,3.559-7.95,7.95v17.491h-9.54v-17.491c0-4.392-3.559-7.95-7.95-7.95
		s-7.95,3.559-7.95,7.95v17.491h-9.54v-17.491c0-4.392-3.559-7.95-7.95-7.95c-4.392,0-7.95,3.559-7.95,7.95v17.491h-5.3v-31.483
		c0-2.671-1.342-5.163-3.57-6.636c-21.661-14.296-34.591-38.287-34.591-64.175c0-42.377,34.476-76.853,76.853-76.853
		s76.853,34.476,76.853,76.853C332.853,381.532,319.923,405.523,298.262,419.819z"/>
</g>
<polygon style="fill:#9FD25A;" points="323.843,7.95 311.122,80.033 200.878,80.033 188.157,7.95 "/>
<polygon style="fill:#6EAD32;" points="188.157,7.95 200.878,80.033 239.039,80.033 226.319,7.95 "/>
<path d="M387.445,207.768h-55.652v-81.623h19.611c10.228,0,18.551-8.322,18.551-18.551V90.634c0-10.228-8.322-18.551-18.551-18.551
	h-30.806l11.073-62.75c0.409-2.315-0.228-4.692-1.738-6.492C328.422,1.04,326.193,0,323.843,0H188.157
	c-2.35,0-4.579,1.04-6.091,2.841c-1.511,1.8-2.147,4.177-1.738,6.492l11.074,62.75h-30.806c-10.228,0-18.551,8.322-18.551,18.551
	v16.961c0,10.228,8.322,18.551,18.551,18.551h19.611v81.623h-55.652c-27.764,0-50.352,22.588-50.352,50.352v245.93
	c0,4.392,3.559,7.95,7.95,7.95h347.694c4.392,0,7.95-3.559,7.95-7.95V258.12C437.797,230.357,415.209,207.768,387.445,207.768z
	 M314.367,15.901l-9.915,56.182h-96.905l-9.915-56.182H314.367z M157.946,107.594V90.634c0-1.462,1.188-2.65,2.65-2.65h190.807
	c1.462,0,2.65,1.188,2.65,2.65v16.961c0,1.462-1.188,2.65-2.65,2.65H160.596C159.134,110.244,157.946,109.056,157.946,107.594z
	 M421.896,496.099H90.104V258.12c0-18.997,15.454-34.451,34.451-34.451h63.602h56.885c4.392,0,7.95-3.559,7.95-7.95
	s-3.559-7.95-7.95-7.95h-48.935v-81.623h119.785v89.574c0,4.392,3.559,7.95,7.95,7.95h63.602c18.997,0,34.451,15.454,34.451,34.451
	V496.099z"/>
<path d="M283.561,207.768H268.73c-4.392,0-7.95,3.559-7.95,7.95s3.559,7.95,7.95,7.95h14.831c4.392,0,7.95-3.559,7.95-7.95
	S287.953,207.768,283.561,207.768z"/>
</svg>